<svg width="174" height="86" viewBox="0 0 174 86" fill="none" xmlns="http://www.w3.org/2000/svg">
<path d="M85.478 44.5047L85.1713 47.05C85.997 45.7931 87.1026 44.7473 88.4003 43.9957C89.6402 43.3077 91.0369 42.9568 92.4527 42.9775C95.366 42.9775 97.5671 44.335 99.056 47.05C99.9305 45.8102 101.054 44.7695 102.355 43.9957C103.54 43.3175 104.882 42.9663 106.246 42.9775C107.857 42.9018 109.445 43.3792 110.75 44.3314C111.839 45.1377 112.589 46.3233 112.855 47.6565C113.106 48.9671 113.136 51.0954 112.946 54.0414L111.332 78.8769C111.319 79.0751 111.232 79.2612 111.088 79.3971C110.944 79.5329 110.754 79.6084 110.557 79.608H102.533C102.299 79.6078 102.068 79.5593 101.854 79.4657C101.64 79.3721 101.447 79.2353 101.288 79.0637C101.129 78.8921 101.006 78.6894 100.927 78.4682C100.849 78.247 100.817 78.0119 100.832 77.7775L102.226 56.1535C102.43 53.0774 102.452 51.1748 102.29 50.4455C102.245 50.1227 102.077 49.83 101.823 49.6282C101.568 49.4265 101.246 49.3313 100.923 49.3624C100.58 49.3405 100.238 49.4354 99.9545 49.6317C99.6705 49.8281 99.4603 50.1146 99.3574 50.4455C99.0811 51.1676 98.8425 53.0756 98.6416 56.1697L97.1563 78.8877C97.1439 79.086 97.0569 79.272 96.9129 79.4079C96.7688 79.5438 96.5787 79.6192 96.3813 79.6188H88.3895C88.1561 79.6186 87.9252 79.5702 87.7112 79.4765C87.4971 79.3829 87.3044 79.2461 87.145 79.0745C86.9856 78.9029 86.8628 78.7003 86.7844 78.479C86.706 78.2578 86.6735 78.0227 86.6889 77.7884L88.0666 56.7654C88.2998 53.2417 88.3519 51.1261 88.2227 50.4184C88.2048 50.2596 88.1555 50.1059 88.0779 49.9664C88.0002 49.8269 87.8957 49.7044 87.7704 49.6061C87.6451 49.5077 87.5016 49.4355 87.3482 49.3937C87.1949 49.3519 87.0348 49.3412 86.8773 49.3624C86.6391 49.3596 86.4029 49.4063 86.1835 49.4995C85.964 49.5926 85.766 49.7303 85.6018 49.904C85.2385 50.2679 85.0088 50.7453 84.9506 51.2578C84.8807 51.7994 84.7838 52.9258 84.6708 54.6588L83.0886 78.8715C83.0763 79.0702 82.9894 79.2569 82.8455 79.3936C82.7017 79.5304 82.5115 79.607 82.3136 79.608H74.3003C74.0669 79.6078 73.836 79.5593 73.6219 79.4657C73.4079 79.3721 73.2152 79.2353 73.0557 79.0637C72.8963 78.8921 72.7736 78.6894 72.6952 78.4682C72.6167 78.247 72.5842 78.0119 72.5997 77.7775L74.7524 45.2304C74.7745 44.7917 74.9634 44.3784 75.2799 44.076C75.5965 43.7735 76.0165 43.6052 76.453 43.6057H84.7246C84.8351 43.6084 84.9437 43.6346 85.0433 43.6827C85.1429 43.7307 85.2313 43.7995 85.3025 43.8845C85.3737 43.9695 85.4262 44.0687 85.4565 44.1756C85.4867 44.2826 85.4941 44.3947 85.478 44.5047Z" fill="white"/>
<path d="M129.048 36.5441L128.773 40.6978C128.761 40.8961 128.674 41.0821 128.53 41.218C128.386 41.3539 128.196 41.4293 127.999 41.4289H119.339C119.106 41.4286 118.876 41.3804 118.662 41.2871C118.449 41.1938 118.256 41.0574 118.097 40.8865C117.938 40.7155 117.815 40.5135 117.736 40.2929C117.657 40.0723 117.624 39.8378 117.639 39.6039L117.789 37.3131C117.812 36.8745 118 36.4611 118.317 36.1587C118.634 35.8563 119.054 35.6879 119.49 35.6885H128.268C128.376 35.688 128.484 35.7104 128.583 35.7542C128.683 35.798 128.772 35.8622 128.846 35.9428C128.919 36.0233 128.975 36.1184 129.01 36.222C129.045 36.3255 129.058 36.4353 129.048 36.5441ZM128.51 44.4616L126.26 78.8717C126.247 79.0704 126.158 79.2565 126.013 79.3923C125.869 79.528 125.678 79.6032 125.48 79.6028H116.837C116.604 79.6026 116.373 79.5541 116.159 79.4605C115.944 79.3669 115.752 79.23 115.592 79.0585C115.433 78.8869 115.31 78.6842 115.232 78.463C115.153 78.2418 115.121 78.0067 115.136 77.7723L117.289 45.2252C117.312 44.787 117.502 44.3744 117.818 44.0722C118.134 43.7701 118.553 43.6013 118.99 43.6005H127.772C127.88 43.6021 127.986 43.6263 128.083 43.6715C128.181 43.7167 128.268 43.782 128.339 43.8631C128.41 43.9442 128.463 44.0393 128.495 44.1424C128.528 44.2455 128.538 44.3542 128.526 44.4616H128.51Z" fill="white"/>
<path d="M144.203 39.6631L143.944 43.6597C143.937 43.7685 143.952 43.8776 143.989 43.98C144.026 44.0825 144.084 44.176 144.159 44.2546C144.234 44.3332 144.324 44.3951 144.425 44.4362C144.525 44.4774 144.633 44.497 144.741 44.4937H146.016C146.123 44.4943 146.228 44.5166 146.325 44.5594C146.422 44.6022 146.51 44.6646 146.583 44.7426C146.655 44.8207 146.711 44.9129 146.747 45.0135C146.783 45.1141 146.798 45.221 146.791 45.3277L146.522 49.4543C146.509 49.6531 146.42 49.8391 146.276 49.9749C146.131 50.1106 145.94 50.1859 145.742 50.1854H144.267C144.071 50.1847 143.882 50.2585 143.737 50.392C143.593 50.5255 143.503 50.7089 143.487 50.9057L142.276 69.4267C142.12 71.7933 142.158 73.1092 142.378 73.38C142.599 73.6508 143.299 73.7428 144.569 73.7807C144.674 73.7827 144.778 73.8062 144.874 73.8496C144.97 73.8931 145.056 73.9556 145.128 74.0335C145.199 74.1115 145.254 74.2031 145.289 74.303C145.325 74.4029 145.34 74.5089 145.333 74.6147L145.053 78.8605C145.041 79.0587 144.954 79.2448 144.81 79.3807C144.666 79.5165 144.476 79.592 144.278 79.5916H140.613C138.846 79.6411 137.078 79.536 135.328 79.2775C134.31 79.077 133.374 78.5776 132.638 77.8424C131.912 77.1646 131.436 76.2599 131.287 75.2754C131.154 74.3115 131.204 72.0388 131.437 68.4573L132.578 51.0194C132.586 50.9125 132.571 50.8053 132.536 50.7043C132.5 50.6034 132.444 50.5109 132.371 50.4326C132.299 50.3544 132.211 50.292 132.113 50.2495C132.015 50.207 131.91 50.1851 131.803 50.1854H131.125C131.019 50.1856 130.913 50.1638 130.815 50.1213C130.717 50.0789 130.629 50.0166 130.556 49.9385C130.483 49.8603 130.426 49.7679 130.39 49.6669C130.354 49.5659 130.338 49.4586 130.345 49.3514L130.614 45.2248C130.628 45.0261 130.716 44.84 130.861 44.7042C131.006 44.5685 131.196 44.4932 131.394 44.4937H132.277C132.475 44.4942 132.666 44.4189 132.811 44.2832C132.956 44.1474 133.044 43.9614 133.057 43.7626L133.332 39.5602C133.344 39.3619 133.431 39.1759 133.575 39.04C133.719 38.9042 133.909 38.8287 134.107 38.8291H143.449C143.554 38.8318 143.657 38.8557 143.752 38.8996C143.847 38.9434 143.933 39.0062 144.003 39.0841C144.074 39.1621 144.128 39.2535 144.162 39.353C144.196 39.4525 144.21 39.558 144.203 39.6631Z" fill="white"/>
<path d="M172.779 43.6275C172.894 43.6271 173.007 43.6521 173.11 43.7008C173.214 43.7495 173.306 43.8206 173.379 43.9092C173.452 43.9977 173.504 44.1014 173.533 44.2128C173.561 44.3242 173.565 44.4406 173.544 44.5536C173.544 44.5536 166.768 76.9004 166.338 78.4005C165.979 79.7624 165.33 81.0299 164.438 82.1155C163.537 83.1365 162.373 83.8863 161.074 84.2817C159.668 84.7402 157.46 84.9713 154.449 84.9749C153.061 85.5164 73.1216 81.5035 73.1216 81.5035C73.1216 81.5035 152.27 80.9133 152.308 80.3176C152.308 80.0251 148.788 44.5211 148.788 44.5211C148.771 44.4077 148.78 44.292 148.812 44.1823C148.845 44.0725 148.902 43.9714 148.978 43.8861C149.054 43.8008 149.147 43.7334 149.252 43.6887C149.357 43.644 149.471 43.6231 149.584 43.6275H157.856C158.051 43.6267 158.24 43.6997 158.385 43.8321C158.529 43.9645 158.619 44.1466 158.636 44.3424L159.982 60.8272C159.998 61.0192 160.085 61.1984 160.224 61.3307C160.363 61.4629 160.546 61.539 160.738 61.5443C160.929 61.5497 161.116 61.484 161.262 61.3597C161.409 61.2354 161.505 61.0613 161.532 60.8705L163.803 44.3045C163.828 44.1169 163.919 43.9448 164.061 43.8202C164.203 43.6957 164.384 43.6272 164.572 43.6275H172.779Z" fill="white"/>
<path d="M70.2587 72.7464L59.4147 4.98768C59.1931 3.5958 58.4857 2.32901 57.4194 1.41483C56.3531 0.500661 54.9979 -0.000984584 53.5971 1.45085e-06H45.799C45.1342 0.000263255 44.477 0.143502 43.8717 0.420121C43.2663 0.696739 42.7267 1.10035 42.2889 1.60391C41.8512 2.10748 41.5255 2.69936 41.3335 3.33992C41.1416 3.98047 41.088 4.6549 41.1762 5.31802L43.4634 22.4473L43.501 22.7234L46.0573 41.9051C46.0787 42.0053 46.0949 42.1065 46.1058 42.2084C46.1218 42.3052 46.1326 42.4029 46.1381 42.5009V42.6037C46.1381 42.7391 46.1381 42.8691 46.1381 42.9991C46.1295 44.5733 45.5021 46.0802 44.3928 47.1904C43.2836 48.3005 41.7827 48.9237 40.2182 48.9236H14.7521C13.8956 48.9232 13.0555 49.1606 12.3243 49.6096C11.5932 50.0587 10.9994 50.7021 10.6082 51.4689L0.635999 70.9647C0.181041 71.8709 -0.0361942 72.8791 0.00491703 73.8936C0.0460283 74.9081 0.344121 75.8951 0.870897 76.761C1.39767 77.627 2.13565 78.343 3.01476 78.8413C3.89387 79.3395 4.88495 79.6034 5.8939 79.6079H12.4434C13.5523 79.6079 14.6387 79.2927 15.5775 78.6987C16.5163 78.1047 17.2693 77.256 17.7497 76.2502L22.3349 66.7027C22.8207 65.7024 23.5754 64.8591 24.5133 64.2686C25.4512 63.678 26.5348 63.3637 27.6412 63.3614H43.6302C45.0637 63.3647 46.4472 63.8913 47.5241 64.8434C48.6009 65.7955 49.2978 67.1085 49.4855 68.5386L50.2443 74.4469C50.4351 75.8712 51.1313 77.1781 52.2044 78.1266C53.2775 79.0751 54.6552 79.6011 56.0834 79.6079H64.4358C65.2868 79.6038 66.1269 79.4151 66.8989 79.0547C67.6709 78.6943 68.3566 78.1706 68.9092 77.5194C69.4619 76.8682 69.8685 76.1047 70.1014 75.2811C70.3343 74.4574 70.3879 73.5929 70.2587 72.7464Z" fill="white"/>
<path d="M16.6194 38.5803L30.7786 13.5011C33.3995 8.87083 39.0395 9.61817 39.3193 14.882L42.3384 40.8006C42.3591 41.5249 42.233 42.2457 41.9677 42.9193C41.7024 43.5929 41.3035 44.205 40.7954 44.7183C40.2873 45.2317 39.6806 45.6354 39.0123 45.9051C38.344 46.1747 37.6281 46.3045 36.9083 46.2865H21.3983C17.276 46.2865 14.6551 42.057 16.6194 38.5803Z" fill="white"/>
</svg>
