<svg width="408" height="370" viewBox="0 0 408 370" fill="none" xmlns="http://www.w3.org/2000/svg">
<rect x="12.0762" y="364" width="142" height="5" fill="#FF5408"/>
<path d="M307.076 269L252.076 259L175.265 230.392L148.076 183" stroke="black" stroke-width="0.5"/>
<path d="M148.345 183H72.2681" stroke="black" stroke-width="0.5"/>
<path d="M307.076 269H350.833" stroke="black" stroke-width="0.5"/>
<rect width="17" height="13" transform="matrix(0.877501 -0.479575 0.492366 0.870388 149.404 183.153)" fill="#FF5408"/>
<rect x="296.023" y="368.171" width="12.7072" height="10.4419" transform="rotate(-90 296.023 368.171)" fill="#FF5408"/>
<rect width="17" height="13" transform="matrix(0.373618 -0.927583 0.933278 0.359155 207.076 240.769)" fill="#FF5408"/>
<rect x="81.5071" y="181.915" width="12.2072" height="9.94188" transform="rotate(-90 81.5071 181.915)" stroke="black" stroke-width="0.5"/>
<rect x="0.292126" y="-0.201076" width="16.5" height="12.5" transform="matrix(0.184565 -0.98282 0.983937 0.178516 286.512 264.465)" stroke="black" stroke-width="0.5"/>
<path d="M215.971 367.671L215.971 355.475L224.916 355.475L224.916 367.671L215.971 367.671Z" stroke="black"/>
<path d="M218.986 234.006C218.871 234.272 218.652 234.528 218.328 234.774L214.252 237.848L216.845 238.922L216.368 240.024L212.259 238.322L212.597 237.543L217.635 233.72L218.308 232.166L216.765 231.527L216.088 233.091L214.848 232.578L215.658 230.707C215.879 230.198 216.247 230.05 216.763 230.264L219.248 231.293C219.764 231.507 219.912 231.868 219.691 232.377L218.986 234.006Z" fill="white"/>
<path d="M156.926 187.758L156.199 186.623L161.702 183.222L161.417 182.778L161.572 182.682L164.097 181.955L164.726 182.937L156.926 187.758Z" fill="white"/>
<path d="M295.684 261.804C295.588 262.354 295.268 262.584 294.725 262.491L291.952 262.021C291.417 261.931 291.197 261.61 291.294 261.06L291.659 258.977L292.988 259.202L292.681 260.951L294.42 261.245L294.818 258.977L293.36 257.559L293.409 257.276L295.264 256.438L295.598 254.533L293.859 254.239L293.57 255.883L292.242 255.658L292.588 253.684C292.685 253.13 293.007 252.9 293.554 252.992L296.31 253.46C296.853 253.552 297.076 253.875 296.978 254.429L296.606 256.552C296.543 256.91 296.344 257.162 296.009 257.307L295.077 257.708L295.833 258.383C296.094 258.613 296.192 258.909 296.129 259.271L295.684 261.804Z" fill="#010202"/>
<path d="M99.9589 152.697H96.0763V153.689H99.4622V168.935H92.0403V169.927H100.471V152.697H99.9589ZM80.4104 168.935H72.8814V153.688H77.0763V152.696H71.8735V169.926H80.4104V168.935Z" fill="black" fill-opacity="0.19"/>
<path fill-rule="evenodd" clip-rule="evenodd" d="M84.9488 16.4747H79.4286L82.1982 19.1811L84.9488 16.4747ZM6.56348 23.6422V29.7675H12.6416V31.4682H5.34058e-05V29.7675H6.09643V15.9626H24.0149V6.52764L24.204 6.43587C27.7911 4.86349 31.3605 3.27374 34.9476 1.68213C34.9476 1.04226 35.5426 0 36.9923 0C38.4603 0 38.8902 1.11605 38.962 1.42606L87.235 16.1455V26.6958H85.692V23.4773L31.8244 23.4959V107.823H24.0149V23.6422H6.56348ZM5.34058e-05 33.9551H12.6416V35.6372H5.34058e-05V33.9551ZM5.34058e-05 31.852H12.6416V33.5527H5.34058e-05V31.852ZM24.0149 16.639H21.5989L24.0149 18.9951V16.639ZM24.0149 20.6252L21.6197 22.9813H24.0149V20.6252ZM7.34191 22.9813H12.8458L10.0945 20.2755L7.34191 22.9813ZM9.62868 19.8191L6.76582 17.003V22.6347L9.62868 19.8191ZM20.0193 22.9813L17.2706 20.278L14.5199 22.9838L20.0193 22.9813ZM16.8048 19.8191L13.6822 16.7469L10.5779 19.8191L13.6822 22.8728L16.8048 19.8191ZM10.0945 19.3448L12.8647 16.6384H7.3438L10.0945 19.3448ZM14.4972 16.639L17.2706 19.3448L20.0439 16.6384L14.4972 16.639ZM17.7502 19.821L20.8173 22.838L23.8888 19.821L20.8223 16.7829L17.7502 19.821ZM76.9929 151.001H86.1381L86.1388 31.395C84.819 31.2487 83.5735 30.1878 83.5735 28.2329V26.7138H89.3547V28.2317C89.3547 30.2064 88.0903 31.2667 86.7521 31.3938L86.7514 151H96.0453V154.749H76.9929V151.001ZM83.201 15.8162L39.0742 2.13909V12.5431H40.3399V15.8348L83.201 15.8162ZM34.9098 2.41376L34.5013 2.59605L24.6868 6.96661V16.143H33.6454V12.5431H34.9098V2.41376ZM31.1374 106.6V101.188L28.405 103.894L31.1374 106.6ZM27.9228 104.351L25.0606 107.167H30.7856L27.9228 104.351ZM31.1374 94.1299L28.405 96.8363L31.1374 99.5421V94.1299ZM27.9228 97.3119L24.8198 100.365L27.9228 103.42L31.0277 100.366L27.9228 97.3119ZM27.4583 103.893L24.6893 101.17V106.618L27.4583 103.893ZM24.6893 99.5607L27.4583 96.8363L24.6893 94.1119V99.5607ZM27.9228 96.3787L30.9905 93.3443L27.9228 90.3273L24.8563 93.3443L27.9228 96.3787ZM31.1374 80.1074L28.405 82.8138L31.1374 85.5016V80.1074ZM27.9228 83.2695L24.8198 86.3418L27.9228 89.3941L31.0277 86.3411L27.9228 83.2695ZM28.4069 89.8523L31.1374 92.5575V87.1633L28.4069 89.8523ZM27.4583 89.8523L24.6893 87.1465V92.5767L27.4583 89.8523ZM24.6893 85.5184L27.4583 82.8126L24.6893 80.0882V85.5184ZM27.9228 82.3395L30.9905 79.3224L27.9228 76.2843L24.8563 79.3224L27.9228 82.3395ZM31.1374 66.0663L28.405 68.7721L31.1374 71.4754V66.0663ZM27.9228 69.2476L24.8198 72.3006L27.9228 75.3518L31.0252 72.2951L27.9228 69.2476ZM28.4044 75.8292L31.1374 78.5325V73.1209L28.4044 75.8292ZM27.4557 75.8292L24.6868 73.1048V78.5536L27.4557 75.8292ZM24.6868 71.4965L27.4557 68.7714L24.6868 66.0471V71.4965ZM27.9203 68.3145L30.988 65.2764L27.9203 62.2593L24.8538 65.2764L27.9203 68.3145ZM31.1348 52.0407L28.4025 54.7471L31.1374 57.4324L31.1348 52.0407ZM27.9203 55.2028L24.8173 58.275L27.9228 61.3274L31.0277 58.2738L27.9203 55.2028ZM28.4044 61.7856L31.1374 64.4908V59.0966L28.4044 61.7856ZM27.4557 61.7856L24.6868 59.0792V64.51L27.4557 61.7856ZM24.6868 57.4516L27.4557 54.7458L24.6868 52.0177V57.4516ZM27.9228 54.269L30.9905 51.252L27.9228 48.2139L24.8563 51.252L27.9228 54.269ZM31.1374 37.9958L28.405 40.7022L31.1374 43.408V37.9958ZM27.9228 41.1772L24.8198 44.2308L27.9228 47.2851L31.0277 44.2308L27.9228 41.1772ZM28.4069 47.7594L31.1374 50.4658V45.0536L28.4069 47.7594ZM27.4583 47.7594L24.6893 45.035V50.4838L27.4583 47.7594ZM24.6893 43.4266L27.4583 40.7022L24.6893 37.9741V43.4266ZM27.9228 40.2447L30.9905 37.2065L27.9228 34.1926L24.8563 37.2096L27.9228 40.2447ZM31.1374 23.9715L28.405 26.6772L31.1374 29.3657V23.9715ZM27.9228 27.1336L24.8198 30.1866L27.9228 33.2601L31.0277 30.1878L27.9228 27.1336ZM28.4069 33.7158L31.1374 36.4234V31.0292L28.4069 33.7158ZM27.4583 33.7158L24.6893 31.0094V36.4402L27.4583 33.7158ZM24.6893 29.3824L27.4583 26.676L24.6893 23.9516V29.3824ZM27.9228 26.2023L30.6962 23.4742H25.1494L27.9228 26.2023ZM77.8112 16.4747H72.2909L75.0416 19.1811L77.8112 16.4747ZM75.5251 19.6548L78.6293 22.693L81.7147 19.6548L78.6293 16.6012L75.5251 19.6548ZM71.4911 22.6719L74.5771 19.6548L71.4917 16.6198L68.4032 19.6548L71.4911 22.6719ZM82.6627 19.6548L85.4361 22.3606V16.9317L82.6627 19.6548ZM84.9488 22.817L82.1982 20.1112L79.4475 22.817H84.9488ZM75.0416 20.1136L72.2909 22.817H77.7929L75.0416 20.1136ZM57.2322 22.6731L60.3012 19.6548L57.2322 16.621L54.1437 19.6561L57.2322 22.6731ZM60.7821 19.1811L63.5353 16.4747H58.0144L60.7821 19.1811ZM65.1741 16.4747L67.9412 19.1811L70.6918 16.4747H65.1741ZM70.6918 22.817L67.9412 20.1136L65.1741 22.817H70.6918ZM67.4577 19.6548L64.3547 16.6024L61.2492 19.6548L64.3547 22.693L67.4577 19.6548ZM60.7846 20.1124L58.0333 22.817H63.5353L60.7846 20.1124ZM43.2929 22.3606L46.0436 19.6548L43.2929 16.9304V22.3606ZM46.5276 19.1799L49.2783 16.4735H43.7581L46.5276 19.1799ZM50.914 16.4735L53.6653 19.1799L56.4349 16.4735H50.914ZM56.4166 22.817L53.6653 20.1112L50.914 22.817H56.4166ZM53.202 19.6548L50.0977 16.6012L46.9922 19.6548L50.0965 22.693L53.202 19.6548ZM46.5106 20.1124L43.7581 22.817H49.2783L46.5106 20.1124Z" fill="black" fill-opacity="0.19"/>
<rect x="12.0762" y="107" width="12" height="1" fill="#CFCFCF"/>
<path fill-rule="evenodd" clip-rule="evenodd" d="M302.026 291.525H304.547L303.283 292.761L302.026 291.525ZM369.863 294.798V302.692H367.087V303.469H372.861V302.692H370.076V291.291H361.893L329.855 286.981L329.768 286.939C328.13 286.221 326.5 285.495 324.862 284.768C324.862 284.476 324.59 284 323.928 284C323.257 284 323.061 284.51 323.028 284.651L300.982 291.374L300.982 309.832H301.687L301.687 294.723L358.327 294.731V338.342H361.893V294.798H369.863ZM372.861 304.605H367.087V305.373H372.861V304.605ZM372.861 303.644H367.087V304.421H372.861V303.644ZM361.893 291.6H362.996L361.893 292.676V291.6ZM361.893 293.42L362.987 294.496H361.893V293.42ZM369.508 294.496H366.994L368.25 293.26L369.508 294.496ZM368.463 293.052L369.771 291.766V294.338L368.463 293.052ZM363.718 294.496L364.973 293.262L366.229 294.497L363.718 294.496ZM365.186 293.052L366.612 291.649L368.03 293.052L366.612 294.447L365.186 293.052ZM368.25 292.835L366.985 291.599H369.507L368.25 292.835ZM366.24 291.6L364.973 292.835L363.707 291.599L366.24 291.6ZM364.754 293.053L363.353 294.431L361.951 293.053L363.351 291.665L364.754 293.053ZM305.659 353.001H301.483L301.483 311.978C302.086 311.912 302.655 311.427 302.655 310.534V309.84H300.014V310.534C300.014 311.436 300.592 311.92 301.203 311.978L301.203 353H296.958V354.712H305.659V353.001ZM302.825 291.224L322.977 284.977V289.729H322.399V291.232L302.825 291.224ZM324.879 285.102L325.065 285.186L329.548 287.182L361.586 291.373H325.456V289.729H324.879V285.102ZM358.64 337.784V335.312L359.888 336.548L358.64 337.784ZM360.108 336.756L361.416 338.043H358.801L360.108 336.756ZM358.64 332.088L359.888 333.324L358.64 334.56V332.088ZM360.108 333.541L361.526 334.936L360.108 336.331L358.69 334.936L360.108 333.541ZM360.321 336.547L361.585 335.303V337.792L360.321 336.547ZM361.585 334.569L360.321 333.324L361.585 332.08V334.569ZM360.108 333.115L358.707 331.729L360.108 330.351L361.509 331.729L360.108 333.115ZM358.64 325.684L359.888 326.92L358.64 328.147V325.684ZM360.108 327.128L361.526 328.531L360.108 329.925L358.69 328.531L360.108 327.128ZM359.887 330.134L358.64 331.37V328.906L359.887 330.134ZM360.321 330.134L361.585 328.899V331.379L360.321 330.134ZM361.585 328.155L360.321 326.919L361.585 325.675V328.155ZM360.108 326.703L358.707 325.325L360.108 323.938L361.509 325.325L360.108 326.703ZM358.64 319.271L359.888 320.506L358.64 321.741V319.271ZM360.108 320.724L361.526 322.118L360.108 323.512L358.692 322.116L360.108 320.724ZM359.888 323.73L358.64 324.964V322.493L359.888 323.73ZM360.322 323.73L361.586 322.485V324.974L360.322 323.73ZM361.586 321.751L360.322 320.506L361.586 319.262V321.751ZM360.11 320.297L358.709 318.91L360.11 317.532L361.51 318.91L360.11 320.297ZM358.641 312.865L359.889 314.101L358.64 315.327L358.641 312.865ZM360.11 314.309L361.527 315.712L360.108 317.106L358.69 315.712L360.11 314.309ZM359.888 317.316L358.64 318.551V316.087L359.888 317.316ZM360.322 317.316L361.586 316.079V318.56L360.322 317.316ZM361.586 315.336L360.322 314.1L361.586 312.854V315.336ZM360.108 313.882L358.707 312.505L360.108 311.117L361.509 312.505L360.108 313.882ZM358.64 306.45L359.888 307.686L358.64 308.922V306.45ZM360.108 307.903L361.526 309.298L360.108 310.693L358.69 309.298L360.108 307.903ZM359.887 310.909L358.64 312.145V309.674L359.887 310.909ZM360.321 310.909L361.585 309.665V312.154L360.321 310.909ZM361.585 308.93L360.321 307.686L361.585 306.44V308.93ZM360.108 307.477L358.707 306.09L360.108 304.713L361.509 306.091L360.108 307.477ZM358.64 300.045L359.888 301.28L358.64 302.508V300.045ZM360.108 301.489L361.526 302.883L360.108 304.287L358.69 302.884L360.108 301.489ZM359.887 304.495L358.64 305.732V303.268L359.887 304.495ZM360.321 304.495L361.585 303.259V305.74L360.321 304.495ZM361.585 302.516L360.321 301.28L361.585 300.036V302.516ZM360.108 301.064L358.842 294.721H361.375L360.108 301.064ZM305.286 291.525H307.807L306.551 292.761L305.286 291.525ZM306.33 292.977L304.912 294.365L303.503 292.977L304.912 291.582L306.33 292.977ZM308.172 294.355L306.763 292.977L308.172 291.591L309.583 292.977L308.172 294.355ZM303.07 292.977L301.804 294.213V291.733L303.07 292.977ZM302.026 294.421L303.283 293.185L304.539 294.421H302.026ZM306.551 293.187L307.807 294.421H305.294L306.551 293.187ZM314.684 294.356L313.283 292.977L314.684 291.591L316.095 292.978L314.684 294.356ZM313.063 292.761L311.806 291.525H314.327L313.063 292.761ZM311.057 291.525L309.794 292.761L308.537 291.525H311.057ZM308.537 294.421L309.794 293.187L311.057 294.421H308.537ZM310.014 292.977L311.432 291.583L312.85 292.977L311.432 294.365L310.014 292.977ZM313.062 293.186L314.319 294.421H311.806L313.062 293.186ZM321.05 294.213L319.794 292.977L321.05 291.733V294.213ZM319.573 292.76L318.317 291.524H320.838L319.573 292.76ZM317.57 291.524L316.313 292.76L315.049 291.524H317.57ZM315.057 294.421L316.313 293.185L317.57 294.421H315.057ZM316.525 292.977L317.943 291.582L319.361 292.977L317.943 294.365L316.525 292.977ZM319.581 293.186L320.838 294.421H318.317L319.581 293.186Z" fill="black" fill-opacity="0.19"/>
<path d="M295.134 360.914V353.95H297.733V353.497H294.907H294.674V361.367M307.273 360.914V353.95H304.618V353.497H307.734V361.367" stroke="#CFCFCF"/>
<path d="M407.076 369H154.076" stroke="black"/>
<rect x="361.076" y="338" width="44" height="0.49" fill="#CFCFCF"/>
</svg>
