<svg width="243" height="119" viewBox="0 0 243 119" fill="none" xmlns="http://www.w3.org/2000/svg">
<g clip-path="url(#clip0_608_46)">
<path d="M119.696 62.3011L119.266 65.8642C120.422 64.1047 121.97 62.6407 123.786 61.5885C125.522 60.6255 127.477 60.1343 129.459 60.1633C133.537 60.1633 136.619 62.0636 138.703 65.8642C139.927 64.1286 141.501 62.6718 143.321 61.5885C144.981 60.6392 146.86 60.1476 148.768 60.1633C151.023 60.0572 153.246 60.7255 155.074 62.0585C156.597 63.1873 157.647 64.847 158.02 66.7133C158.371 68.5479 158.414 71.5273 158.148 75.6514L155.888 110.418C155.87 110.696 155.748 110.956 155.547 111.146C155.345 111.337 155.079 111.442 154.803 111.442H143.57C143.243 111.441 142.92 111.374 142.62 111.242C142.321 111.111 142.051 110.92 141.828 110.68C141.604 110.439 141.433 110.156 141.323 109.846C141.213 109.536 141.168 109.207 141.189 108.879L143.14 78.608C143.427 74.302 143.457 71.6385 143.231 70.6176C143.167 70.1656 142.933 69.7559 142.576 69.4735C142.22 69.1911 141.769 69.0578 141.317 69.1014C140.836 69.0707 140.358 69.2035 139.961 69.4784C139.563 69.7533 139.269 70.1544 139.125 70.6176C138.738 71.6284 138.404 74.2994 138.123 78.6308L136.044 110.433C136.026 110.711 135.905 110.971 135.703 111.162C135.501 111.352 135.235 111.457 134.959 111.457H123.771C123.445 111.456 123.121 111.389 122.822 111.258C122.522 111.127 122.252 110.935 122.029 110.695C121.806 110.455 121.634 110.171 121.524 109.861C121.414 109.552 121.369 109.222 121.391 108.894L123.319 79.4647C123.646 74.5319 123.719 71.5703 123.538 70.5797C123.513 70.3573 123.444 70.1421 123.335 69.9469C123.226 69.7516 123.08 69.5801 122.905 69.4425C122.729 69.3048 122.528 69.2037 122.314 69.1452C122.099 69.0866 121.875 69.0717 121.654 69.1014C121.321 69.0975 120.99 69.1628 120.683 69.2932C120.376 69.4236 120.099 69.6164 119.869 69.8595C119.36 70.3689 119.039 71.0372 118.957 71.7547C118.859 72.5128 118.724 74.0897 118.565 76.5156L116.351 110.411C116.333 110.689 116.212 110.95 116.01 111.142C115.809 111.333 115.543 111.44 115.266 111.442H104.048C103.721 111.441 103.398 111.374 103.098 111.242C102.799 111.111 102.529 110.92 102.306 110.68C102.083 110.439 101.911 110.156 101.801 109.846C101.691 109.536 101.646 109.207 101.667 108.879L104.681 63.317C104.712 62.7029 104.976 62.1243 105.419 61.7009C105.863 61.2776 106.45 61.0419 107.061 61.0427H118.641C118.795 61.0464 118.947 61.0831 119.087 61.1504C119.226 61.2177 119.35 61.314 119.45 61.4329C119.549 61.5519 119.623 61.6908 119.665 61.8405C119.708 61.9901 119.718 62.1472 119.696 62.3011Z" fill="white"/>
<path d="M180.689 51.157L180.304 56.9717C180.287 57.2493 180.165 57.5097 179.964 57.6999C179.762 57.8901 179.496 57.9957 179.22 57.9952H167.098C166.772 57.9948 166.449 57.9272 166.15 57.7966C165.851 57.666 165.582 57.4751 165.358 57.2358C165.135 56.9964 164.963 56.7136 164.853 56.4049C164.743 56.0961 164.697 55.7678 164.717 55.4403L164.928 52.2336C164.959 51.6195 165.223 51.0408 165.667 50.6175C166.11 50.1941 166.698 49.9584 167.309 49.9592H179.596C179.748 49.9586 179.899 49.99 180.038 50.0513C180.178 50.1126 180.303 50.2025 180.405 50.3152C180.508 50.428 180.587 50.5611 180.635 50.7061C180.684 50.851 180.702 51.0046 180.689 51.157ZM179.935 62.2406L176.786 110.411C176.767 110.689 176.644 110.949 176.441 111.139C176.238 111.329 175.971 111.435 175.694 111.434H163.595C163.268 111.434 162.945 111.366 162.645 111.235C162.345 111.104 162.076 110.912 161.852 110.672C161.629 110.432 161.457 110.148 161.348 109.839C161.238 109.529 161.192 109.2 161.214 108.872L164.227 63.3095C164.26 62.696 164.525 62.1185 164.968 61.6955C165.411 61.2725 165.998 61.0362 166.608 61.0352H178.903C179.053 61.0374 179.202 61.0712 179.338 61.1345C179.475 61.1979 179.597 61.2892 179.696 61.4027C179.795 61.5163 179.87 61.6495 179.915 61.7938C179.96 61.938 179.975 62.0902 179.958 62.2406H179.935Z" fill="white"/>
<path d="M201.903 55.5237L201.542 61.1185C201.531 61.2707 201.552 61.4235 201.604 61.5669C201.656 61.7103 201.737 61.8413 201.842 61.9513C201.947 62.0613 202.074 62.1479 202.214 62.2056C202.354 62.2632 202.505 62.2906 202.657 62.286H204.442C204.591 62.2867 204.738 62.318 204.874 62.378C205.01 62.4379 205.133 62.5252 205.235 62.6345C205.336 62.7438 205.415 62.8728 205.465 63.0136C205.515 63.1545 205.536 63.3041 205.527 63.4535L205.15 69.2303C205.131 69.5085 205.008 69.769 204.805 69.959C204.602 70.149 204.335 70.2544 204.058 70.2537H201.994C201.719 70.2528 201.454 70.356 201.252 70.5429C201.049 70.7297 200.924 70.9865 200.901 71.262L199.206 97.1892C198.988 100.502 199.041 102.344 199.349 102.723C199.658 103.102 200.638 103.231 202.416 103.284C202.563 103.287 202.708 103.32 202.843 103.381C202.977 103.442 203.098 103.529 203.198 103.638C203.298 103.747 203.375 103.876 203.425 104.016C203.474 104.155 203.495 104.304 203.485 104.452L203.094 110.395C203.076 110.673 202.955 110.933 202.753 111.124C202.551 111.314 202.285 111.419 202.009 111.419H196.878C194.404 111.488 191.929 111.341 189.48 110.979C188.055 110.699 186.744 110 185.713 108.97C184.698 108.021 184.032 106.755 183.822 105.377C183.637 104.027 183.707 100.846 184.033 95.8322L185.631 71.4212C185.641 71.2716 185.621 71.1214 185.571 70.9801C185.521 70.8388 185.443 70.7093 185.341 70.5998C185.239 70.4902 185.116 70.403 184.979 70.3434C184.842 70.2839 184.695 70.2533 184.546 70.2537H183.596C183.447 70.254 183.299 70.2235 183.162 70.164C183.025 70.1045 182.901 70.0174 182.799 69.908C182.697 69.7986 182.618 69.6692 182.567 69.5279C182.516 69.3865 182.495 69.2362 182.504 69.0862L182.881 63.3094C182.9 63.0312 183.023 62.7707 183.226 62.5807C183.429 62.3907 183.696 62.2853 183.973 62.286H185.209C185.486 62.2867 185.753 62.1813 185.956 61.9913C186.158 61.8013 186.282 61.5408 186.301 61.2626L186.685 55.3797C186.703 55.1021 186.824 54.8417 187.026 54.6515C187.228 54.4613 187.494 54.3557 187.77 54.3562H200.849C200.995 54.3599 201.139 54.3935 201.273 54.4549C201.406 54.5162 201.525 54.6041 201.624 54.7132C201.722 54.8223 201.798 54.9504 201.846 55.0897C201.894 55.229 201.914 55.3766 201.903 55.5237Z" fill="white"/>
<path d="M241.908 61.0731C242.068 61.0725 242.226 61.1075 242.371 61.1756C242.516 61.2438 242.644 61.3434 242.746 61.4673C242.849 61.5912 242.922 61.7364 242.962 61.8923C243.002 62.0483 243.007 62.2112 242.977 62.3694C242.977 62.3694 233.492 107.651 232.89 109.751C232.387 111.658 231.48 113.432 230.23 114.952C228.969 116.381 227.34 117.431 225.522 117.984C223.553 118.626 220.462 118.949 216.248 118.955C214.304 119.713 102.398 114.095 102.398 114.095C102.398 114.095 213.197 113.269 213.249 112.435C213.249 112.025 208.322 62.324 208.322 62.324C208.299 62.1653 208.311 62.0033 208.356 61.8497C208.402 61.696 208.481 61.5544 208.588 61.435C208.694 61.3156 208.826 61.2212 208.972 61.1587C209.119 61.0961 209.278 61.0669 209.437 61.0731H221.017C221.29 61.072 221.554 61.1742 221.756 61.3595C221.959 61.5447 222.084 61.7996 222.109 62.0738L223.992 85.1505C224.016 85.4194 224.136 85.6703 224.331 85.8554C224.526 86.0405 224.782 86.147 225.05 86.1545C225.318 86.162 225.58 86.07 225.785 85.896C225.99 85.7221 226.124 85.4783 226.162 85.2112L229.341 62.0207C229.376 61.7581 229.504 61.5172 229.703 61.3428C229.901 61.1685 230.155 61.0726 230.419 61.0731H241.908Z" fill="#FF5408"/>
<path d="M98.3904 101.836L83.2099 6.98216C82.8998 5.0337 81.9095 3.26034 80.4169 1.9806C78.9242 0.700867 77.027 -0.0013783 75.066 2.03101e-06H64.1497C63.2189 0.000368527 62.299 0.200886 61.4516 0.58812C60.6042 0.975354 59.8487 1.54036 59.236 2.24529C58.6232 2.95022 58.1672 3.77879 57.8985 4.67549C57.6299 5.57219 57.5547 6.51632 57.6782 7.44461L60.88 31.4235L60.9328 31.8102L64.5113 58.6623C64.5412 58.8025 64.5638 58.9442 64.5791 59.0868C64.6015 59.2224 64.6166 59.359 64.6243 59.4962V59.6402C64.6243 59.8298 64.6243 60.0117 64.6243 60.1937C64.6123 62.3975 63.734 64.5069 62.1811 66.061C60.6283 67.6151 58.5272 68.4874 56.3372 68.4874H20.6876C19.4885 68.4867 18.3125 68.819 17.289 69.4477C16.2655 70.0763 15.4342 70.977 14.8867 72.0505L0.926701 99.3423C0.289813 100.611 -0.0142907 102.022 0.0432602 103.442C0.100811 104.862 0.518107 106.244 1.25553 107.456C1.99295 108.669 3.02603 109.671 4.25669 110.369C5.48734 111.066 6.87473 111.435 8.28714 111.442H17.4557C19.0081 111.442 20.5289 111.001 21.8431 110.169C23.1572 109.337 24.2113 108.149 24.8839 106.741L31.3026 93.376C31.9827 91.9757 33.0392 90.7952 34.3521 89.9684C35.6651 89.1417 37.182 88.7017 38.7309 88.6985H61.1136C63.1202 88.7031 65.0571 89.4403 66.5645 90.7732C68.0719 92.1061 69.0476 93.9441 69.3102 95.946L70.3725 104.217C70.6397 106.211 71.6142 108.04 73.1164 109.368C74.6186 110.696 76.5472 111.432 78.5466 111.442H90.2389C91.4302 111.436 92.6063 111.172 93.687 110.667C94.7677 110.163 95.7276 109.43 96.5012 108.518C97.2749 107.606 97.8441 106.538 98.1701 105.385C98.4961 104.232 98.5713 103.021 98.3904 101.836Z" fill="white"/>
<path d="M23.3017 54.0075L43.1229 18.8996C46.7918 12.4178 54.6871 13.464 55.0789 20.8328L59.3053 57.1157C59.3343 58.1296 59.1577 59.1388 58.7863 60.0817C58.4149 61.0246 57.8566 61.8815 57.1453 62.6001C56.434 63.3187 55.5846 63.8839 54.6491 64.2614C53.7136 64.6388 52.7114 64.8205 51.7038 64.7954H29.9916C24.2208 64.7954 20.5519 58.8746 23.3017 54.0075Z" fill="#FF5408"/>
</g>
<defs>
<clipPath id="clip0_608_46">
<rect width="243" height="119" fill="white"/>
</clipPath>
</defs>
</svg>
